<svg width="16" height="16" viewBox="0 0 16 16" fill="none" xmlns="http://www.w3.org/2000/svg">
<path d="M4.79481 7.07691L7.99991 1.82056L11.205 7.07691H4.79481ZM11.6666 14.4102C10.9016 14.4102 10.2531 14.1442 9.72108 13.6122C9.18904 13.0801 8.92301 12.4316 8.92301 11.6667C8.92301 10.9017 9.18904 10.2532 9.72108 9.72117C10.2531 9.18913 10.9016 8.92311 11.6666 8.92311C12.4315 8.92311 13.08 9.18913 13.6121 9.72117C14.1441 10.2532 14.4101 10.9017 14.4101 11.6667C14.4101 12.4316 14.1441 13.0801 13.6121 13.6122C13.08 14.1442 12.4315 14.4102 11.6666 14.4102ZM2.25635 14.0769V9.25644H7.07682V14.0769H2.25635ZM11.6664 13.4103C12.1546 13.4103 12.5672 13.2417 12.9044 12.9047C13.2416 12.5676 13.4102 12.155 13.4102 11.6669C13.4102 11.1787 13.2416 10.766 12.9046 10.4289C12.5675 10.0917 12.1549 9.92307 11.6668 9.92307C11.1786 9.92307 10.7659 10.0916 10.4288 10.4287C10.0916 10.7657 9.92298 11.1783 9.92298 11.6665C9.92298 12.1546 10.0915 12.5673 10.4286 12.9045C10.7656 13.2417 11.1782 13.4103 11.6664 13.4103ZM3.25631 13.0769H6.07685V10.2564H3.25631V13.0769ZM6.55888 6.07694H9.44095L7.99991 3.75897L6.55888 6.07694Z" fill="#202124"/>
</svg>
