<svg width="16" height="16" viewBox="0 0 16 16" fill="none" xmlns="http://www.w3.org/2000/svg">
<path d="M2.33337 7.33336V2.33337H7.33336V7.33336H2.33337ZM3.33336 6.33337H6.33337V3.33336H3.33336V6.33337ZM2.33337 13.6667V8.66669H7.33336V13.6667H2.33337ZM3.33336 12.6667H6.33337V9.66667H3.33336V12.6667ZM8.66669 7.33336V2.33337H13.6667V7.33336H8.66669ZM9.66667 6.33337H12.6667V3.33336H9.66667V6.33337ZM12.4167 13.6667V12.4167H13.6667V13.6667H12.4167ZM8.66669 9.91669V8.66669H9.91669V9.91669H8.66669ZM9.91669 11.1667V9.91669H11.1667V11.1667H9.91669ZM8.66669 12.4167V11.1667H9.91669V12.4167H8.66669ZM9.91669 13.6667V12.4167H11.1667V13.6667H9.91669ZM11.1667 12.4167V11.1667H12.4167V12.4167H11.1667ZM11.1667 9.91669V8.66669H12.4167V9.91669H11.1667ZM12.4167 11.1667V9.91669H13.6667V11.1667H12.4167Z" fill="white"/>
</svg>
