<svg width="16" height="16" viewBox="0 0 16 16" fill="none" xmlns="http://www.w3.org/2000/svg">
<path d="M5.68853 12.5513C4.51159 12.0906 3.54642 11.3331 2.79301 10.2789C2.03959 9.22458 1.66287 8.02394 1.66287 6.67692C1.66287 6.35812 1.68595 6.04381 1.73211 5.73397C1.77826 5.42414 1.84963 5.12094 1.94621 4.82436L0.839775 5.46667L0.346191 4.60516L3.23464 2.93851L4.90129 5.81669L4.02953 6.32309L3.07824 4.67307C2.9432 4.9859 2.84298 5.3109 2.77759 5.64807C2.7122 5.98526 2.67951 6.33035 2.67951 6.68334C2.67951 7.82095 3.00494 8.84318 3.65581 9.75002C4.30666 10.6569 5.15304 11.2979 6.19493 11.6731L5.68853 12.5513ZM10.2372 4.33332V3.33334H12.1372C11.6304 2.70001 11.0158 2.21048 10.2936 1.86476C9.57139 1.51902 8.80686 1.34616 8.00003 1.34616C7.3419 1.34616 6.72353 1.45663 6.14489 1.67757C5.56626 1.89852 5.04489 2.20686 4.58077 2.60259L4.07437 1.71799C4.61711 1.29064 5.21775 0.955163 5.87631 0.711574C6.53485 0.467985 7.2372 0.346191 7.98336 0.346191C8.85686 0.346191 9.68891 0.515419 10.4795 0.853875C11.2701 1.19234 11.9671 1.68124 12.5705 2.32056V1.00001H13.5705V4.33332H10.2372ZM10.0667 14.3013L7.17826 12.6282L8.84492 9.75642L9.70644 10.2564L8.71156 11.9603C10.0269 11.7799 11.124 11.1915 12.0026 10.1949C12.8812 9.1983 13.3205 8.02779 13.3205 6.68334C13.3205 6.50556 13.3114 6.33227 13.293 6.16346C13.2746 5.99465 13.2436 5.82905 13.2 5.66666H14.2231C14.2556 5.82905 14.2799 5.99187 14.2962 6.15512C14.3124 6.31838 14.3205 6.4889 14.3205 6.66667C14.3205 8.14103 13.869 9.44851 12.966 10.5891C12.063 11.7297 10.9013 12.4692 9.48077 12.8077L10.5667 13.4397L10.0667 14.3013Z" fill="#202124"/>
</svg>
